<?xml version="1.0" encoding="utf-8"?>
<!-- Generator: Adobe Illustrator 26.0.0, SVG Export Plug-In . SVG Version: 6.00 Build 0)  -->
<svg version="1.1" id="图层_1" xmlns="http://www.w3.org/2000/svg" xmlns:xlink="http://www.w3.org/1999/xlink" x="0px" y="0px"
	 viewBox="0 0 1920 1080" style="enable-background:new 0 0 1920 1080;" xml:space="preserve">
<style type="text/css">
	.st0{fill:#000E35;}
	.st1{fill-rule:evenodd;clip-rule:evenodd;fill:url(#SVGID_00000082353152347026156450000006748582821573511102_);}
	.st2{fill-rule:evenodd;clip-rule:evenodd;fill:url(#SVGID_00000091724904579575971900000005922735703383025558_);}
	.st3{fill:none;}
	.st4{fill:url(#SVGID_00000047059444453501232590000011587227073355599295_);}
	.st5{fill:none;stroke:url(#SVGID_00000039855522836769157680000004462819981962585245_);}
	.st6{fill-rule:evenodd;clip-rule:evenodd;fill:url(#SVGID_00000075147116403797598370000014686892237673644206_);}
	.st7{fill-rule:evenodd;clip-rule:evenodd;fill:url(#SVGID_00000081614941814297281330000012134001081698936762_);}
	.st8{fill-rule:evenodd;clip-rule:evenodd;fill:#067CD2;}
	.st9{fill:none;stroke:url(#SVGID_00000057861996459671186160000014879350108197478554_);}
	.st10{fill:none;stroke:url(#SVGID_00000000942854520634240840000011402546439849092013_);}
	.st11{fill:none;stroke:url(#SVGID_00000015349353443370121950000008501871729720496048_);}
	.st12{fill-rule:evenodd;clip-rule:evenodd;fill:#3AB2FC;}
	.st13{fill:none;stroke:url(#SVGID_00000134233136448095842310000001501687564339568530_);}
	.st14{fill:none;stroke:url(#SVGID_00000142880614336345406340000014846620222246814873_);}
	.st15{fill:none;stroke:url(#SVGID_00000019665853937587103430000013604165297916118416_);}
	.st16{fill:none;stroke:url(#SVGID_00000080893917611246074960000004887002168341535421_);}
	.st17{fill:none;stroke:url(#SVGID_00000118387146716768083580000000111639636312171932_);}
	.st18{fill:none;stroke:url(#SVGID_00000135682118846755780840000017452714052390070686_);}
	.st19{fill:none;stroke:url(#SVGID_00000170253802439262227000000007424684228590013343_);}
	.st20{fill:url(#SVGID_00000106828157370044580360000017521488873656991659_);}
	.st21{opacity:0.3;fill:url(#SVGID_00000114063275601881560160000018377243596566965660_);enable-background:new    ;}
</style>

<text id="g32900836" x="747" y="73.2" fill="#FFFFFF" style="font-size: 35px; font-family:宋体;">循环水养殖智能控制系统</text>
<g id="element28" transform="translate(792.500000,524.100000) ">
	
	<rect x="-794.4" y="-527.4" class="st0" width="1921.9" height="1083.3"/>
	
		<linearGradient id="SVGID_00000161594823762255026780000016615541566396659840_" gradientUnits="userSpaceOnUse" x1="-791.5467" y1="557.1818" x2="-790.5602" y2="557.1818" gradientTransform="matrix(524.9 0 0 -13.7 415915.4688 7143.0298)">
		<stop  offset="0" style="stop-color:#172E65"/>
		<stop  offset="1" style="stop-color:#0484DE;stop-opacity:0"/>
	</linearGradient>
	
		<polygon id="SVGID_8_" style="fill-rule:evenodd;clip-rule:evenodd;fill:url(#SVGID_00000161594823762255026780000016615541566396659840_);" points="
		442.5,-497.9 950.4,-497.9 950.4,-482.9 432.6,-482.9 	"/>
	
		<linearGradient id="SVGID_00000177477724339109223440000004703614024785527966_" gradientUnits="userSpaceOnUse" x1="-790.5317" y1="557.1818" x2="-791.5182" y2="557.1818" gradientTransform="matrix(524.9 0 0 -13.7 414805.875 7143.0298)">
		<stop  offset="0" style="stop-color:#172E65"/>
		<stop  offset="1" style="stop-color:#0484DE;stop-opacity:0"/>
	</linearGradient>
	
		<polygon id="SVGID_17_" style="fill-rule:evenodd;clip-rule:evenodd;fill:url(#SVGID_00000177477724339109223440000004703614024785527966_);" points="
		-154.2,-497.9 -662.1,-497.9 -662.1,-482.9 -144.2,-482.9 	"/>
	<g id="SVGID_1_" transform="translate(-792.500000,-507.600000) ">
	</g>
	<path class="st3" d="M-141-511.3h570.2L394-467h-16.6L351-432.6h-20l-8.9-11.5c-188.5,0-308.7,0-360.5,0l-9.3,11.5h-18.1L-91.3-467
		h-15.9L-141-511.3z"/>
	<g transform="translate(-792.500000,-507.600000) ">
		<g>
			<g id="SVGID_2_">
			</g>
			
				<linearGradient id="SVGID_00000077310474137141695360000018227272796103240608_" gradientUnits="userSpaceOnUse" x1="1.4644" y1="1063.5879" x2="1.4644" y2="1064.6815" gradientTransform="matrix(577.9999 0 0 -68.9 90.2001 73352.8438)">
				<stop  offset="0" style="stop-color:#0484DE"/>
				<stop  offset="1" style="stop-color:#172E65"/>
			</linearGradient>
			<polygon style="fill:url(#SVGID_00000077310474137141695360000018227272796103240608_);" points="651.5,-3.7 1221.7,-3.7 
				1186.5,40.6 1169.9,40.6 1143.5,71.6 1123.5,71.6 1114.5,63.4 754.1,63.4 744.8,71.6 726.8,71.6 701.2,40.6 685.4,40.6 			"/>
			<g id="SVGID_3_">
			</g>
			
				<linearGradient id="SVGID_00000044149660913738246520000015968855949725458053_" gradientUnits="userSpaceOnUse" x1="1.4654" y1="1063.6038" x2="1.4654" y2="1064.6654" gradientTransform="matrix(577.9999 0 0 -68.9 90.2001 73352.8438)">
				<stop  offset="0" style="stop-color:#172E65"/>
				<stop  offset="1" style="stop-color:#0484DE"/>
			</linearGradient>
			<polygon style="fill:none;stroke:url(#SVGID_00000044149660913738246520000015968855949725458053_);" points="651.5,-3.7 
				1221.7,-3.7 1186.5,40.6 1169.9,40.6 1143.5,71.6 1123.5,71.6 1114.5,63.4 754.1,63.4 744.8,71.6 726.8,71.6 701.2,40.6 
				685.4,40.6 			"/>
		</g>
	</g>
	<g transform="translate(-792.500000,-507.600000) ">
		<g id="SVGID_6_">
		</g>
		
			<linearGradient id="SVGID_00000062900033920578266870000015883532601788394371_" gradientUnits="userSpaceOnUse" x1="0.8615" y1="1064.7798" x2="1.8481" y2="1064.7798" gradientTransform="matrix(149.9 0 0 -7.7 820.5 8271.0469)">
			<stop  offset="0" style="stop-color:#0484DE"/>
			<stop  offset="1" style="stop-color:#172E65;stop-opacity:0"/>
		</linearGradient>
		<path style="fill-rule:evenodd;clip-rule:evenodd;fill:url(#SVGID_00000062900033920578266870000015883532601788394371_);" d="
			M949.6,76.5L956,68h7.2l-6.3,8.4H949.6z M968,76.5l6.3-8.4h-7.2l-6.3,8.4H968z M979.2,76.5l6.3-8.4h-7.2l-6.3,8.4H979.2z
			 M990.4,76.5l6.3-8.4h-7.2l-6.3,8.4H990.4z M1001.6,76.5l6.3-8.4h-7.2l-6.3,8.4H1001.6z M1012.8,76.5l6.3-8.4h-7.2l-6.3,8.4
			H1012.8z M1024,76.5l6.3-8.4h-7.2l-6.3,8.4H1024z M1035.2,76.5l6.3-8.4h-7.2l-6.3,8.4H1035.2z M1046.4,76.5l6.3-8.4h-7.2l-6.3,8.4
			H1046.4z M1057.6,76.5l6.3-8.4h-7.2l-6.3,8.4H1057.6z M1068.8,76.5l6.3-8.4h-7.2l-6.3,8.4H1068.8z M1080,76.5l6.3-8.4h-7.2
			l-6.3,8.4H1080z M1091.2,76.5l6.3-8.4h-7.2l-6.3,8.4H1091.2z"/>
		<g id="SVGID_7_">
		</g>
		
			<linearGradient id="SVGID_00000139280791857702726130000001411401489434113157_" gradientUnits="userSpaceOnUse" x1="1.8639" y1="1064.7798" x2="0.8774" y2="1064.7798" gradientTransform="matrix(149.9 0 0 -7.7 643.8 8271.0469)">
			<stop  offset="0" style="stop-color:#0484DE"/>
			<stop  offset="1" style="stop-color:#172E65;stop-opacity:0"/>
		</linearGradient>
		<path style="fill-rule:evenodd;clip-rule:evenodd;fill:url(#SVGID_00000139280791857702726130000001411401489434113157_);" d="
			M916,76.5l-6.3-8.4h7.2l6.3,8.4H916z M912,76.5l-6.3-8.4h-7.2l6.3,8.4H912z M900.8,76.5l-6.3-8.4h-7.2l6.3,8.4H900.8z M889.6,76.5
			l-6.3-8.4H876l6.3,8.4H889.6z M878.4,76.5l-6.3-8.4h-7.2l6.3,8.4H878.4z M867.2,76.5l-6.3-8.4h-7.2l6.3,8.4H867.2z M856,76.5
			l-6.3-8.4h-7.2l6.3,8.4H856z M844.8,76.5l-6.3-8.4h-7.2l6.3,8.4H844.8z M833.6,76.5l-6.3-8.4h-7.2l6.3,8.4H833.6z M822.4,76.5
			l-6.3-8.4h-7.2l6.3,8.4H822.4z M811.2,76.5l-6.3-8.4h-7.2l6.3,8.4H811.2z M800,76.5l-6.3-8.4h-7.2l6.3,8.4H800z M788.8,76.5
			l-6.3-8.4h-7.2l6.3,8.4H788.8z"/>
	</g>
	<polygon class="st8" points="136,-439.6 152.6,-439.6 144.2,-430.8 	"/>
	<g id="SVGID_11_" transform="translate(-792.500000,-507.600000) ">
	</g>
	
		<linearGradient id="SVGID_00000083063205311687516430000001851537999563796368_" gradientUnits="userSpaceOnUse" x1="-791.9647" y1="602.6779" x2="-790.9513" y2="602.6779" gradientTransform="matrix(54.2001 0 0 -0.2 43354.457 -352.8217)">
		<stop  offset="0" style="stop-color:#0484DE"/>
		<stop  offset="1" style="stop-color:#172E65;stop-opacity:0"/>
	</linearGradient>
	
		<line style="fill:none;stroke:url(#SVGID_00000083063205311687516430000001851537999563796368_);" x1="430.6" y1="-473.5" x2="484.1" y2="-473.2"/>
	<g id="SVGID_12_" transform="translate(-792.500000,-507.600000) ">
	</g>
	
		<linearGradient id="SVGID_00000016062994475272668420000013957211554202104471_" gradientUnits="userSpaceOnUse" x1="-792.0772" y1="602.6779" x2="-791.0645" y2="602.6779" gradientTransform="matrix(45 0 0 -0.2 36140.8008 -352.8217)">
		<stop  offset="0" style="stop-color:#0484DE"/>
		<stop  offset="1" style="stop-color:#172E65;stop-opacity:0"/>
	</linearGradient>
	
		<line style="fill:none;stroke:url(#SVGID_00000016062994475272668420000013957211554202104471_);" x1="497.9" y1="-473.5" x2="542.3" y2="-473.2"/>
	<g id="SVGID_13_" transform="translate(-792.500000,-507.600000) ">
	</g>
	
		<linearGradient id="SVGID_00000018223560608470735760000003432520659369203075_" gradientUnits="userSpaceOnUse" x1="-791.5649" y1="566.1648" x2="-790.5784" y2="566.1648" gradientTransform="matrix(404.6 0 0 -1 320829.375 92.7)">
		<stop  offset="0" style="stop-color:#0484DE"/>
		<stop  offset="1" style="stop-color:#172E65;stop-opacity:0"/>
	</linearGradient>
	
		<line style="fill:none;stroke:url(#SVGID_00000018223560608470735760000003432520659369203075_);" x1="562.2" y1="-473.5" x2="961.4" y2="-473.5"/>
	<g transform="translate(-792.500000,-507.600000) ">
		<polygon class="st12" points="1240.9,20.4 1244.8,13.7 1237.6,13.7 1233.7,20.4 		"/>
		<polygon class="st12" points="1251.2,20.4 1255.2,13.7 1248,13.7 1244,20.4 		"/>
		<polygon class="st12" points="1261.7,20.4 1265.6,13.7 1258.4,13.7 1254.5,20.4 		"/>
		<polygon class="st12" points="1272,20.4 1276,13.7 1268.8,13.7 1264.8,20.4 		"/>
	</g>
	<g id="SVGID_14_" transform="translate(-792.500000,-507.600000) ">
	</g>
	
		<linearGradient id="SVGID_00000006678398137065323990000013042317220199308204_" gradientUnits="userSpaceOnUse" x1="-791.5455" y1="557.0572" x2="-790.5538" y2="557.0572" gradientTransform="matrix(603.1 0 0 -26.1 477795.7188 14040.9902)">
		<stop  offset="0" style="stop-color:#0484DE"/>
		<stop  offset="1" style="stop-color:#172E65;stop-opacity:0"/>
	</linearGradient>
	<polyline style="fill:none;stroke:url(#SVGID_00000006678398137065323990000013042317220199308204_);" points="417.8,-477.6 
		439.4,-506.2 1012.8,-506.2 	"/>
	<g id="SVGID_15_" transform="translate(-792.500000,-507.600000) ">
	</g>
	
		<linearGradient id="SVGID_00000108294686292535470440000001680542260355014573_" gradientUnits="userSpaceOnUse" x1="-791.5394" y1="556.9589" x2="-790.5436" y2="556.9589" gradientTransform="matrix(653.2999 0 0 -22.5 517498.6875 12077.8486)">
		<stop  offset="0" style="stop-color:#0484DE"/>
		<stop  offset="1" style="stop-color:#172E65;stop-opacity:0"/>
	</linearGradient>
	<polyline style="fill:none;stroke:url(#SVGID_00000108294686292535470440000001680542260355014573_);" points="1032.4,-459.2 
		849.6,-459.2 842.8,-452.1 678.1,-452.1 670.1,-460.6 408.2,-460.6 387.9,-436 	"/>
	<g id="SVGID_20_" transform="translate(-792.500000,-507.600000) ">
	</g>
	
		<linearGradient id="SVGID_00000116944006441106094700000008597252439816499631_" gradientUnits="userSpaceOnUse" x1="-790.7941" y1="602.6779" x2="-791.8074" y2="602.6779" gradientTransform="matrix(54.2 0 0 -0.2 42719.4102 -352.8217)">
		<stop  offset="0" style="stop-color:#0484DE"/>
		<stop  offset="1" style="stop-color:#172E65;stop-opacity:0"/>
	</linearGradient>
	
		<line style="fill:none;stroke:url(#SVGID_00000116944006441106094700000008597252439816499631_);" x1="-142.4" y1="-473.5" x2="-195.8" y2="-473.2"/>
	<g id="SVGID_21_" transform="translate(-792.500000,-507.600000) ">
	</g>
	
		<linearGradient id="SVGID_00000155109358000273096750000009722415555544845698_" gradientUnits="userSpaceOnUse" x1="-790.8366" y1="602.6779" x2="-791.8494" y2="602.6779" gradientTransform="matrix(45 0 0 -0.2 35378.6016 -352.8217)">
		<stop  offset="0" style="stop-color:#0484DE"/>
		<stop  offset="1" style="stop-color:#172E65;stop-opacity:0"/>
	</linearGradient>
	
		<line style="fill:none;stroke:url(#SVGID_00000155109358000273096750000009722415555544845698_);" x1="-209.6" y1="-473.5" x2="-254" y2="-473.2"/>
	<g id="SVGID_22_" transform="translate(-792.500000,-507.600000) ">
	</g>
	
		<linearGradient id="SVGID_00000083783800296152650460000005863258621684770453_" gradientUnits="userSpaceOnUse" x1="-790.5367" y1="566.1648" x2="-791.5233" y2="566.1648" gradientTransform="matrix(404.5 0 0 -1 319498.1875 92.7)">
		<stop  offset="0" style="stop-color:#0484DE"/>
		<stop  offset="1" style="stop-color:#172E65;stop-opacity:0"/>
	</linearGradient>
	
		<line style="fill:none;stroke:url(#SVGID_00000083783800296152650460000005863258621684770453_);" x1="-274" y1="-473.5" x2="-673" y2="-473.5"/>
	<g transform="translate(-792.500000,-507.600000) ">
		<polygon class="st12" points="632.4,20.4 628.5,13.7 635.6,13.7 639.6,20.4 		"/>
		<polygon class="st12" points="622,20.4 618.1,13.7 625.3,13.7 629.2,20.4 		"/>
		<polygon class="st12" points="611.7,20.4 607.7,13.7 614.9,13.7 618.9,20.4 		"/>
		<polygon class="st12" points="601.2,20.4 597.3,13.7 604.5,13.7 608.4,20.4 		"/>
	</g>
	<g id="SVGID_23_" transform="translate(-792.500000,-507.600000) ">
	</g>
	
		<linearGradient id="SVGID_00000008847663627732405640000012569156333828047261_" gradientUnits="userSpaceOnUse" x1="-790.5227" y1="557.0572" x2="-791.5144" y2="557.0572" gradientTransform="matrix(603.1 0 0 -26.1 476637.8438 14040.9902)">
		<stop  offset="0" style="stop-color:#0484DE"/>
		<stop  offset="1" style="stop-color:#172E65;stop-opacity:0"/>
	</linearGradient>
	<polyline style="fill:none;stroke:url(#SVGID_00000008847663627732405640000012569156333828047261_);" points="-129.5,-477.6 
		-151.1,-506.2 -724.5,-506.2 	"/>
	<g id="SVGID_24_" transform="translate(-792.500000,-507.600000) ">
	</g>
	
		<linearGradient id="SVGID_00000139977672605679169520000013933713951782354348_" gradientUnits="userSpaceOnUse" x1="-790.5235" y1="556.9589" x2="-791.5195" y2="556.9589" gradientTransform="matrix(653.2 0 0 -22.5 516272.1562 12077.8486)">
		<stop  offset="0" style="stop-color:#0484DE"/>
		<stop  offset="1" style="stop-color:#172E65;stop-opacity:0"/>
	</linearGradient>
	<polyline style="fill:none;stroke:url(#SVGID_00000139977672605679169520000013933713951782354348_);" points="-744.1,-459.2 
		-561.3,-459.2 -554.5,-452.1 -389.8,-452.1 -381.8,-460.6 -119.9,-460.6 -99.7,-436 	"/>
	<g transform="translate(-792.500000,-507.600000) ">
		<g>
			<g id="SVGID_25_">
			</g>
			
				<linearGradient id="SVGID_00000037693789230199722280000015362989114205203328_" gradientUnits="userSpaceOnUse" x1="1.4876" y1="1064.3494" x2="0.5023" y2="1064.3494" gradientTransform="matrix(34.4 0 0 -20.6 669.3 21983.9023)">
				<stop  offset="0" style="stop-color:#0484DE"/>
				<stop  offset="1" style="stop-color:#172E65;stop-opacity:0"/>
			</linearGradient>
			<polygon style="fill:url(#SVGID_00000037693789230199722280000015362989114205203328_);" points="700.4,47 686.5,47 708,69.6 
				720.5,69.6 			"/>
		</g>
	</g>
	<g id="SVGID_26_" transform="translate(-792.500000,-507.600000) ">
	</g>
	
		<radialGradient id="SVGID_00000150802908842791500740000008003724805385208221_" cx="-791.0044" cy="556.4266" r="0.4399" gradientTransform="matrix(1748.1394 0 0 -591.3276 1382956.5 329251.5)" gradientUnits="userSpaceOnUse">
		<stop  offset="0" style="stop-color:#00FFFF"/>
		<stop  offset="1" style="stop-color:#00FFFF;stop-opacity:0"/>
	</radialGradient>
	
		<ellipse style="opacity:0.3;fill:url(#SVGID_00000150802908842791500740000008003724805385208221_);enable-background:new    ;" cx="170.6" cy="221.1" rx="874.1" ry="295.7"/>
	<g id="SVGID_18_" transform="translate(-792.500000,-507.600000) ">
	</g>
	<g id="SVGID_9_" transform="translate(-792.500000,-507.600000) ">
	</g>
</g>
</svg>
